<svg width="24" height="24" viewBox="0 0 24 24" fill="none" xmlns="http://www.w3.org/2000/svg">
<g clip-path="url(#clip0_26_103)">
<path opacity="0.4" d="M1.25 12C1.25 17.9371 6.06294 22.75 12 22.75C17.9371 22.75 22.75 17.9371 22.75 12C22.75 6.06294 17.9371 1.25 12 1.25C6.06294 1.25 1.25 6.06294 1.25 12Z" fill="#96FF8D"/>
<path fill-rule="evenodd" clip-rule="evenodd" d="M16.9685 8.41438C17.292 8.67313 17.3444 9.1451 17.0857 9.46855L12.7943 14.8327C11.6316 16.2861 9.39119 16.1889 8.35877 14.6403L6.87597 12.4161C6.6462 12.0714 6.73933 11.6058 7.08398 11.376C7.42862 11.1462 7.89428 11.2394 8.12404 11.584L9.60685 13.8082C10.0761 14.5121 11.0945 14.5563 11.623 13.8957L15.9144 8.53151C16.1731 8.20806 16.6451 8.15562 16.9685 8.41438Z" fill="#96FF8D"/>
</g>
<defs>
<clipPath id="clip0_26_103">
<rect width="24" height="24" fill="white"/>
</clipPath>
</defs>
</svg>
